<!DOCTYPE svg PUBLIC "-//W3C//DTD SVG 1.1//EN" "http://www.w3.org/Graphics/SVG/1.1/DTD/svg11.dtd">
<!-- Uploaded to: SVG Repo, www.svgrepo.com, Transformed by: SVG Repo Mixer Tools -->
<svg width="800px" height="800px" viewBox="0 0 24 24" fill="none" xmlns="http://www.w3.org/2000/svg">
<g id="SVGRepo_bgCarrier" stroke-width="0"/>
<g id="SVGRepo_tracerCarrier" stroke-linecap="round" stroke-linejoin="round"/>
<g id="SVGRepo_iconCarrier"> <path d="M5 5.75C5 5.33579 5.33579 5 5.75 5H18.25C18.6642 5 19 5.33579 19 5.75C19 6.16421 18.6642 6.5 18.25 6.5H5.75C5.33579 6.5 5 6.16421 5 5.75Z" fill="#ffffff"/> <path d="M5 9.75C5 9.33579 5.33579 9 5.75 9H18.25C18.6642 9 19 9.33579 19 9.75C19 10.1642 18.6642 10.5 18.25 10.5H5.75C5.33579 10.5 5 10.1642 5 9.75Z" fill="#ffffff"/> <path d="M5 13.75C5 13.3358 5.33579 13 5.75 13H18.25C18.6642 13 19 13.3358 19 13.75C19 14.1642 18.6642 14.5 18.25 14.5H5.75C5.33579 14.5 5 14.1642 5 13.75Z" fill="#ffffff"/> <path d="M5 17.75C5 17.3358 5.33579 17 5.75 17H18.25C18.6642 17 19 17.3358 19 17.75C19 18.1642 18.6642 18.5 18.25 18.5H5.75C5.33579 18.5 5 18.1642 5 17.75Z" fill="#ffffff"/> </g>
</svg>